<?xml version="1.0" encoding="UTF-8" standalone="no"?>
<!-- Created with Inkscape (http://www.inkscape.org/) -->

<svg
   xmlns:dc="http://purl.org/dc/elements/1.1/"
   xmlns:cc="http://creativecommons.org/ns#"
   xmlns:rdf="http://www.w3.org/1999/02/22-rdf-syntax-ns#"
   xmlns:svg="http://www.w3.org/2000/svg"
   xmlns="http://www.w3.org/2000/svg"
   xmlns:sodipodi="http://sodipodi.sourceforge.net/DTD/sodipodi-0.dtd"
   xmlns:inkscape="http://www.inkscape.org/namespaces/inkscape"
   id="svg2"
   sodipodi:docname="ring.svg"
   viewBox="0 0 2000 2000"
   version="1.1"
   inkscape:version="0.92.1 r15371"
   width="2133.3333"
   height="2133.3333">
  <defs
     id="defs3686" />
  <sodipodi:namedview
     id="base"
     bordercolor="#666666"
     inkscape:pageshadow="2"
     inkscape:window-width="1920"
     objecttolerance="1"
     pagecolor="#ffffff"
     gridtolerance="1"
     inkscape:window-height="1017"
     inkscape:window-maximized="1"
     inkscape:zoom="0.2415"
     inkscape:window-x="-8"
     showgrid="false"
     borderopacity="1.0"
     inkscape:current-layer="layer1"
     inkscape:cx="1000"
     inkscape:cy="834.36853"
     inkscape:window-y="-8"
     inkscape:snap-page="true"
     guidetolerance="1"
     inkscape:pageopacity="0.0"
     inkscape:document-units="px" />
  <g
     id="layer1"
     inkscape:label="Layer 1"
     inkscape:groupmode="layer"
     transform="translate(0,947.64)">
    <path
       id="path4067"
       style="fill:#cccccc;stroke:#000000;stroke-width:4.11880016"
       d="m 1192,-726.54 c 33.364,-39.269 72.596,-5.7572 18.305,16.247 -9.3174,6.0243 -44.438,-5.5529 -18.305,-16.247 z m -32.332,-7.3345 c 31.839,-40.516 72.324,-8.5278 18.912,15.536 -9.0814,6.3759 -44.617,-3.8506 -18.912,-15.536 z m -33.249,-5.8376 c 30.197,-41.754 71.926,-11.407 19.518,14.769 -8.8193,6.7332 -44.735,-2.0667 -19.518,-14.769 z m -32.806,-4.7878 c 28.579,-42.878 71.438,-14.147 20.068,14.012 -8.555,7.0656 -44.782,-0.3551 -20.068,-14.012 z m -33.085,-3.3138 c 26.267,-44.332 70.588,-17.913 20.782,12.929 -8.1689,7.5092 -44.737,2.0181 -20.782,-12.929 z m -33.106,-1.7789 c 24.553,-45.304 69.851,-20.596 21.261,12.126 -7.8762,7.8155 -44.627,3.7268 -21.261,-12.126 z m -33.758,-0.14889 c 22.725,-46.248 68.974,-23.369 21.728,11.267 -7.5573,8.124 -44.443,5.5042 -21.728,-11.267 z m -33.144,0.81105 c 20.941,-47.082 68.03,-25.988 22.143,10.428 -7.2419,8.4065 -44.2,7.1991 -22.143,-10.428 z m -32.044,2.0911 c 18.147,-48.229 66.39,-29.929 22.716,9.1131 -6.7388,8.8187 -43.702,9.7785 -22.716,-9.1131 z m -32.91,4.0126 c 16.29,-48.887 65.198,-32.445 23.047,8.2382 -6.3948,9.0676 -43.297,11.439 -23.047,-8.2382 z m -33.267,5.7347 c 14.326,-49.498 63.851,-35.021 23.358,7.312 -6.0279,9.3155 -42.806,13.159 -23.358,-7.312 z m -96.52,24.124 c 7.8158,-50.933 58.795,-42.972 24.106,4.2349 -4.7747,10.016 -40.748,18.575 -24.106,-4.2349 z m -31.825,11.257 c 5.7765,-51.204 57.034,-45.284 24.256,3.2695 -4.3712,10.198 -39.975,20.186 -24.256,-3.2695 z m 161.05,-40.674 c 15.783,-49.053 64.858,-33.118 23.131,7.999 -6.3002,9.1332 -43.177,11.887 -23.131,-7.999 z m -32.676,5.6059 c 13.897,-49.62 63.545,-35.573 23.42,7.1089 -5.9477,9.3676 -42.691,13.529 -23.42,-7.1089 z m -32.95,7.34 c 11.906,-50.135 62.076,-38.081 23.685,6.1688 -5.5687,9.5972 -42.117,15.222 -23.685,-6.1688 z m -32.139,8.1399 c 9.9806,-50.554 60.574,-40.425 23.904,5.2592 -5.1972,9.803 -41.504,16.821 -23.904,-5.2592 z m -31.832,9.6083 c 7.2878,-51.011 58.347,-43.578 24.149,3.9851 -4.6706,10.065 -40.555,18.996 -24.149,-3.9851 z m -62.505,23.824 c 3.2828,-51.425 54.768,-48 24.386,2.0876 -3.87,10.399 -38.948,22.104 -24.386,-2.0876 z m -30.307,13.441 c 1.3155,-51.512 52.893,-50.058 24.448,1.1541 -3.4706,10.539 -38.074,23.576 -24.448,-1.1541 z m -28.8,14.202 c -1.7052,-51.501 49.868,-53.071 24.474,-0.28032 -2.8481,10.727 -36.626,25.768 -24.474,0.28032 z m -28.865,16.309 c -3.6722,-51.399 47.804,-54.939 24.445,-1.2155 -2.435,10.825 -35.616,27.148 -24.445,1.2155 z m -28.535,18.037 c -5.7208,-51.211 45.573,-56.802 24.377,-2.19 -2.0012,10.914 -34.504,28.548 -24.377,2.19 z m -27.504,18.513 c -7.6734,-50.955 43.369,-58.503 24.276,-3.1201 -1.5829,10.982 -33.388,29.846 -24.276,3.1201 z m -26.719,19.791 c -10.363,-50.476 40.208,-60.719 24.076,-4.4021 -0.99757,11.051 -31.76,31.573 -24.076,4.4021 z m -25.702,20.942 c -12.284,-50.044 37.858,-62.212 23.891,-5.3192 -0.57541,11.081 -30.529,32.764 -23.891,5.3192 z m -25.089,22.586 c -14.272,-49.513 35.345,-63.672 23.659,-6.2683 -0.13272,11.095 -29.198,33.956 -23.659,6.2683 z m -23.989,22.885 c -16.153,-48.928 32.882,-64.983 23.4,-7.1721 0.29053,11.098 -27.884,35.04 -23.4,7.1721 z m 975.69,-98.339 c 44.69,-25.653 70.258,19.165 11.722,21.486 -10.807,2.5132 -39.933,-20.271 -11.722,-21.486 z m -27.939,-17.849 c 43.677,-27.342 70.939,16.465 12.535,21.022 -10.925,3.2111 -40.284,-19.131 -12.535,-21.022 z m -29.309,-16.751 c 42.551,-29.064 71.54,13.621 13.364,20.505 -10.578,3.3494 -41.393,-17.092 -13.364,-20.505 z m -29.247,-15.613 c 41.409,-30.669 72.008,10.877 14.138,19.979 -10.442,3.7514 -42.016,-15.498 -14.138,-19.979 z m -30.009,-14.321 c 39.726,-32.82 72.483,7.0463 15.177,19.202 -10.411,4.6123 -42.44,-13.698 -15.177,-19.202 z m -30.548,-12.883 c 38.443,-34.314 72.699,4.2708 15.899,18.608 -10.057,4.687 -43.253,-11.604 -15.899,-18.608 z m -31.713,-11.57 c 37.042,-35.821 72.812,1.3662 16.629,17.959 -9.8618,5.0847 -43.682,-9.8692 -16.629,-17.959 z m -31.461,-10.459 c 35.646,-37.21 72.811,-1.4177 17.304,17.31 -9.6601,5.4579 -44.027,-8.1925 -17.304,-17.31 z m -787.42,222.74 c -19.366,-47.752 28.5,-67.016 22.875,-8.7053 1.0273,11.048 -25.492,36.82 -22.875,8.7053 z m -21.467,25.265 c -21.176,-46.977 25.918,-68.056 22.525,-9.5734 1.4481,11.001 -24.066,37.767 -22.525,9.5734 z m -20.565,26.771 c -23.035,-46.094 23.182,-69.037 22.126,-10.465 1.886,10.934 -22.539,38.698 -22.126,10.465 z m -19.429,26.864 c -24.78,-45.18 20.526,-69.872 21.71,-11.303 2.5765,11.091 -21.421,39.114 -21.71,11.303 z m -18.252,27.793 c -27.139,-43.804 16.795,-70.862 21.08,-12.437 2.8751,10.717 -18.919,40.59 -21.08,12.437 z m -16.901,28.522 c -28.794,-42.734 14.076,-71.451 20.59,-13.233 3.2822,10.599 -17.353,41.283 -20.59,13.233 z m -15.758,29.855 c -30.476,-41.551 11.212,-71.957 20.045,-14.045 3.7031,10.459 -15.693,41.943 -20.045,14.045 z m -14.623,29.755 c -32.041,-40.356 8.4535,-72.333 19.493,-14.801 4.0996,10.311 -14.078,42.512 -19.493,14.801 z m -12.979,29.372 c -34.351,-38.41 4.2007,-72.703 18.593,-15.917 4.6978,10.055 -11.561,43.264 -18.593,15.917 z m -11.676,31.029 c -35.794,-37.069 1.4187,-72.811 17.971,-16.616 5.0777,9.8657 -9.9011,43.675 -17.971,16.616 z m -10.315,32.143 c -37.245,-35.61 -1.4878,-72.81 17.293,-17.32 5.4671,9.6552 -8.15,44.035 -17.293,17.32 z m -9.2184,31.846 c -38.579,-34.161 -4.2691,-72.7 16.619,-17.969 5.8316,9.4388 -6.4608,44.315 -16.619,17.969 z m -7.7966,32.323 c -40.334,-32.069 -8.1154,-72.371 15.643,-18.824 6.3249,9.1166 -4.104,44.595 -15.643,18.824 z m -6.2783,32.554 c -41.531,-30.504 -10.877,-72.008 14.912,-19.408 6.6683,8.8688 -2.3968,44.718 -14.912,19.408 z m -4.7526,33.422 c -42.715,-28.822 -13.741,-71.517 14.126,-19.988 7.0164,8.5953 -0.61014,44.779 -14.126,19.988 z m -3.7177,32.945 c -43.783,-27.166 -16.471,-70.942 13.347,-20.515 7.3434,8.3264 1.0938,44.767 -13.347,20.515 z m -2.8739,30.523 c -45.435,-24.31 -20.972,-69.739 12.011,-21.326 7.8577,7.8334 3.9657,44.607 -12.011,21.326 z m -0.33444,33.152 c -46.33,-22.556 -23.623,-68.887 11.187,-21.769 8.1514,7.5286 5.6674,44.423 -11.187,21.769 z m 1.3226,33.732 c -47.194,-20.689 -26.352,-67.89 10.309,-22.198 8.4452,7.1966 7.4363,44.161 -10.309,22.198 z m 2.2549,33.077 c -47.95,-18.87 -28.928,-66.833 9.4534,-22.576 8.7143,6.8681 9.1187,43.845 -9.4534,22.576 z m 3.7544,33.038 c -48.882,-16.302 -32.429,-65.206 8.2439,-23.045 9.0661,6.397 11.429,43.3 -8.2439,23.045 z m 5.2592,32.734 c -49.47,-14.422 -34.896,-63.919 7.3576,-23.344 9.3038,6.0462 13.076,42.831 -7.3576,23.344 z m 6.9901,33.026 c -50.006,-12.436 -37.42,-62.476 6.4195,-23.619 9.5377,5.6692 14.774,42.275 -6.4195,23.619 z m 7.7986,32.224 c -50.445,-10.516 -39.781,-61 5.5123,-23.847 9.7473,5.3013 16.379,41.68 -5.5123,23.847 z m 8.8172,30.877 c -50.975,-7.5423 -43.286,-58.564 4.1056,-24.129 10.044,4.7225 18.795,40.647 -4.1056,24.129 z m 10.878,31.318 c -51.226,-5.5885 -45.493,-56.867 3.1804,-24.268 10.214,4.3337 20.333,39.901 -3.1804,24.268 z m 12.637,31.303 c -51.408,-3.5396 -47.726,-55.006 2.2094,-24.376 10.379,3.9225 21.91,39.058 -2.2094,24.376 z m 13.29,30.373 c -51.506,-1.5726 -49.793,-53.142 1.2762,-24.442 10.521,3.5233 23.387,38.192 -1.2762,24.442 z m 14.688,29.83 c -51.516,1.1593 -52.539,-50.429 -0.0208,-24.475 10.694,2.9599 25.377,36.899 0.0208,24.475 z m 16.003,29.036 c -51.435,3.127 -54.429,-48.383 -0.95636,-24.457 10.799,2.5497 26.769,35.901 0.95636,24.457 z m 17.73,28.727 c -51.269,5.1775 -56.316,-46.173 -1.9315,-24.399 10.892,2.1168 28.18,34.805 1.9315,24.399 z m 18.22,27.698 c -51.03,7.133 -58.047,-43.984 -2.8672,-24.306 10.971,1.701 29.482,33.706 2.8672,24.306 z m 17.137,25.812 c -50.509,10.205 -60.593,-40.396 -4.3271,-24.09 11.047,1.0325 31.474,31.858 4.3271,24.09 z m 20.862,25.768 c -50.082,12.128 -62.093,-38.051 -5.2447,-23.907 11.079,0.61036 32.668,30.632 5.2447,23.907 z m 22.508,25.159 c -49.558,14.117 -63.562,-35.544 -6.1946,-23.679 11.094,0.16747 33.865,29.303 6.1946,23.679 z m 22.81,24.06 c -48.982,16.001 -64.874,-33.088 -7.095,-23.425 11.092,-0.2572 34.96,27.988 7.095,23.425 z m 23.941,23.075 c -48.065,18.574 -66.536,-29.604 -8.3263,-23.016 11.064,-0.84456 36.394,26.096 8.3263,23.016 z m 24.907,21.882 c -47.32,20.398 -67.618,-27.041 -9.1995,-22.681 11.023,-1.2664 37.364,24.685 9.1995,22.681 z m 26.427,21.005 c -46.469,22.27 -68.644,-24.32 -10.098,-22.295 10.963,-1.706 38.32,23.175 10.098,22.295 z m 26.539,19.871 c -45.583,24.029 -69.523,-21.678 -10.942,-21.893 10.891,-2.1232 39.178,21.694 10.942,21.893 z m 26.467,18.184 c -44.097,26.659 -70.674,-17.567 -12.206,-21.215 10.751,-2.7582 40.382,19.359 12.206,21.215 z m 28.336,17.211 c -43.046,28.325 -71.294,-14.853 -13.008,-20.732 10.634,-3.1665 41.092,17.803 13.008,20.732 z m 29.683,16.079 c -41.881,30.021 -71.83,-11.996 -13.825,-20.197 10.499,-3.5884 41.77,16.149 13.825,20.197 z m 29.594,14.946 c -40.704,31.599 -72.236,-9.2426 -14.587,-19.654 10.354,-3.9864 42.357,14.541 14.587,19.654 z m 30.325,13.637 c -38.972,33.712 -72.624,-5.4018 -15.608,-18.853 10.128,-4.5307 43.068,12.276 15.608,18.853 z m 30.833,12.188 c -37.655,35.177 -72.778,-2.6214 -16.317,-18.243 9.9481,-4.9137 43.505,10.621 16.317,18.243 z m 31.967,10.849 c -36.221,36.651 -72.824,0.28455 -17.032,-17.577 9.8937,-5.6368 43.603,9.3571 17.032,17.577 z m 31.69,9.7433 c -34.791,38.006 -72.764,3.0744 -17.694,-16.909 9.5402,-5.6777 44.198,7.2 17.694,16.909 z m 30.551,6.7845 c -32.265,40.177 -72.409,7.7634 -18.747,-15.735 9.1471,-6.2798 44.574,4.3212 18.747,15.735 z m 32.523,6.4371 c -30.706,41.381 -72.06,10.526 -19.335,-15.006 8.9015,-6.6247 44.706,2.6145 19.335,15.006 z m 33.398,4.9154 c -29.03,42.574 -71.583,13.392 -19.919,-14.223 8.6295,-6.9745 44.775,0.82791 19.919,14.223 z m 32.926,3.8783 c -27.382,43.652 -71.019,16.119 -20.448,-13.451 8.3562,-7.2995 44.774,-0.88397 20.448,13.451 z m 33.164,2.3972 c -25.03,45.042 -70.065,19.859 -21.132,-12.349 7.958,-7.7323 44.664,-3.2548 21.132,12.349 z m 33.142,0.86222 c -23.29,45.966 -69.255,22.521 -21.588,-11.533 7.657,-8.0304 44.50704,-4.96 21.588,11.533 z m 33.74904,-0.78519 c -21.437,46.859 -68.30104,25.268 -22.031,-10.661 7.3294,-8.3298 44.274,-6.7319 22.031,10.661 z m 33.109,-1.7277 c -19.631,47.643 -67.28504,27.86 -22.423,-9.8118 7.0064,-8.6036 43.984,-8.4193 22.423,9.8118 z m 31.973,-2.9769 c -16.806,48.712 -65.537,31.755 -22.959,-8.4812 6.4925,-9.0017 43.414,-10.984 22.959,8.4812 z m 32.786,-4.9216 c -14.931,49.319 -64.275,34.237 -23.266,-7.5973 6.1414,-9.2411 42.964,-12.633 23.266,7.5973 z m 33.096,-6.6529 c -12.951,49.875 -62.858,36.774 -23.551,-6.6629 5.7677,-9.4787 42.426,-14.338 23.551,6.6629 z m 32.302,-7.4663 c -11.036,50.334 -61.407,39.149 -23.789,-5.758 5.4014,-9.6915 41.847,-15.949 23.789,5.758 z m 32.026,-8.9402 c -8.3526,50.848 -59.246,42.348 -24.06,-4.4892 4.8794,-9.9651 40.943,-18.144 24.06,4.4892 z m 31.488,-10.379 c -6.4036,51.13 -57.584,44.583 -24.214,-3.5663 4.4959,-10.144 40.219,-19.696 24.214,3.5663 z m 31.502,-12.133 c -4.3576,51.345 -55.759,46.844 -24.337,-2.5972 3.9911,-10.664 39.485,-20.729 24.337,2.5972 z m 30.581,-12.805 c -2.3916,51.47 -53.926,48.949 -24.418,-1.6604 3.6933,-10.47 38.561,-22.767 24.418,1.6604 z m 28.462,-11.832 c 0.7484,51.524 -50.844,52.137 -24.475,-0.17384 3.0451,-10.669 37.1,-25.083 24.475,0.17384 z m 29.163,-15.771 c 2.7172,51.457 -48.815,54.042 -24.464,0.76153 2.6361,-10.778 36.113,-26.483 24.464,-0.76153 z m 28.867,-17.501 c 4.7695,51.308 -46.62,55.947 -24.414,1.7373 2.2032,-10.875 35.028,-27.903 24.414,-1.7373 z m 27.842,-17.999 c 6.727,51.088 -44.447,57.688 -24.33,2.6693 1.7855,-10.951 33.936,-29.221 24.33,-2.6693 z m 27.082,-19.292 c 9.4245,50.66 -41.328,59.962 -24.154,3.9547 1.0174,-11.341 32.568,-30.465 24.154,-3.9547 z m 26.086,-20.461 c 11.354,50.263 -39.006,61.497 -23.986,4.8745 0.7792,-11.071 31.13,-32.189 23.986,-4.8745 z m 25.504,-22.117 c 13.351,49.77 -36.521,63.006 -23.771,5.8282 0.338,-11.09 29.823,-33.408 23.771,-5.8282 z m 24.41,-22.435 c 15.243,49.223 -34.086,64.355 -23.531,6.7324 -0.086,-11.095 28.524,-34.524 23.531,-6.7324 z m 22.738,-22.674 c 18.102,48.246 -30.257,66.242 -23.096,8.0997 -0.7355,-11.074 26.45,-36.136 23.096,-8.0997 z m 22.125,-24.691 c 19.932,47.518 -27.702,67.35 -22.77,8.9765 -1.1583,-11.035 25.052,-37.12 22.77,-8.9765 z m 21.26,-26.222 c 21.813,46.685 -24.993,68.402 -22.394,9.8781 -1.5978,-10.98 23.551,-38.09 22.394,-9.8781 z m 20.13,-26.343 c 23.581,45.817 -22.36,69.307 -21.999,10.727 -2.0159,-10.91 22.078,-38.963 21.999,-10.727 z m 18.978,-27.303 c 25.975,44.503 -18.656,70.394 -21.4,11.877 -2.8717,-11.019 20.37,-39.672 21.4,-11.877 z m 17.646,-28.068 c 27.657,43.478 -15.952,71.056 -20.931,12.687 -3.0016,-10.682 18.435,-40.812 20.931,-12.687 z m 16.539,-29.429 c 29.37,42.34 -13.104,71.636 -20.408,13.512 -3.4255,-10.553 16.792,-41.515 20.408,-13.512 z m 15.401,-29.359 c 30.965,41.183 -10.35,72.09 -19.873,14.285 -3.828,-10.421 15.2,-42.122 19.873,-14.285 z m 13.554,-27.909 c 33.415,39.226 -5.9511,72.581 -18.971,15.465 -4.4532,-10.162 12.602,-42.974 18.971,-15.465 z m 12.421,-30.739 c 34.89,37.92 -3.1731,72.755 -18.366,16.178 -4.8378,-9.9854 10.95,-43.424 18.366,-16.178 z m 11.09,-31.884 c 36.376,36.498 -0.267,72.824 -17.706,16.899 -5.5616,-9.9361 9.6872,-43.531 17.706,-16.899 z m 9.9831,-31.615 c 37.744,35.081 2.5167,72.782 -17.047,17.563 -5.6035,-9.5765 7.5271,-44.146 17.047,-17.563 z m 8.5731,-32.126 c 39.55,33.031 6.3697,72.546 -16.092,18.442 -6.4441,-9.388 5.6806,-44.233 16.092,-18.442 z m 7.0611,-32.393 c 40.783,31.496 9.1367,72.249 -15.376,19.043 -6.4522,-9.0269 3.4729,-44.648 15.376,-19.043 z m 5.5564,-33.297 c 42.008,29.843 12.014,71.827 -14.603,19.641 -6.8076,-8.7615 1.6891,-44.751 14.603,-19.641 z m 4.5108,-32.846 c 43.118,28.216 14.75,71.315 -13.842,20.185 -7.1372,-8.4954 -0.023,-44.783 13.842,-20.185 z m 3.0708,-31.965 c 44.697,25.641 18.904,70.328 -12.636,20.962 -7.6264,-8.0663 -2.6501,-44.703 12.636,-20.962 z m 1.3133,-33.128 c 45.644,23.914 21.578,69.554 -11.825,21.429 -7.9254,-7.7653 -4.3534,-44.571 11.825,-21.429 z m -0.3296,-33.756 c 46.563,22.073 24.336,68.638 -10.96,21.884 -8.2292,-7.4428 -6.1289,-44.362 10.96,-21.884 z m -1.2771,-33.129 c 47.372,20.277 26.942,67.658 -10.116,22.287 -8.5066,-7.1225 -7.8202,-44.095 10.116,-22.287 z m -2.7769,-33.134 c 48.38,17.739 30.489,66.135 -8.9208,22.792 -8.8733,-6.6613 -10.146,-43.619 8.9208,-22.792 z m -4.2905,-32.875 c 49.022,15.877 32.994,64.922 -8.0432,23.116 -9.1211,-6.3181 -11.805,-43.199 8.0432,-23.116 z m -6.0117,-33.218 c 49.617,13.908 35.559,63.553 -7.1143,23.419 -9.3659,-5.9488 -13.519,-42.694 7.1143,-23.419 z m -6.8438,-32.44 c 50.106,12.001 37.973,62.148 -6.2074,23.673 -9.5938,-5.5926 -15.129,-42.147 6.2074,-23.673 z m -10.35,-32.119 c 50.777,8.7721 41.858,59.593 -4.6876,24.022 -9.9241,-4.9622 -17.806,-41.091 4.6876,-24.022 z m -10.118,-31.572 c 51.075,6.8252 44.105,57.95 -3.7661,24.184 -10.106,-4.5795 -19.363,-40.38 3.7661,-24.184 z m -11.873,-31.601 c 51.307,4.7813 46.383,56.144 -2.798,24.315 -10.631,-4.0791 -20.403,-39.655 2.798,-24.315 z m -12.552,-30.686 c 51.452,2.817 48.495,54.33 -1.8666,24.404 -10.779,-3.6696 -21.903,-38.846 1.8666,-24.404 z m -13.963,-30.177 c 51.529,0.0865 51.306,51.684 -0.5707,24.469 -10.959,-3.0932 -23.931,-37.631 0.5707,-24.469 z m -15.296,-29.414 c 51.495,-1.8829 53.243,49.685 0.3647,24.473 -10.734,-2.8101 -25.893,-36.538 -0.3647,-24.473 z m -17.03,-29.147 c 51.379,-3.9366 55.184,47.521 1.3411,24.439 -10.837,-2.3792 -27.331,-35.476 -1.3411,-24.439 z m -17.546,-28.131 c 51.191,-5.8974 56.96,45.377 2.2742,24.37 -10.92,-1.9633 -28.666,-34.406 -2.2742,-24.37 z m -18.088,-26.533 c 50.757,-8.8866 59.52,41.962 3.6982,24.194 -11.017,-1.3202 -30.633,-32.667 -3.6982,-24.194 z m -20.183,-26.302 c 50.381,-10.82 61.08,39.656 4.6201,24.035 -11.059,-0.89825 -31.859,-31.472 -4.6201,-24.035 z m -21.845,-25.737 c 49.909,-12.822 62.615,37.187 5.5758,23.832 -11.086,-0.45612 -33.09,-30.176 -5.5758,-23.832 z m -22.175,-24.646 c 49.382,-14.72 63.99,34.767 6.4827,23.601 -11.096,-0.0319 -34.219,-28.889 -6.4827,-23.601 z m -23.331,-23.69 c 48.533,-17.316 65.742,31.327 7.7239,23.225 -11.082,0.55598 -35.702,-27.035 -7.7239,-23.225 z m -24.329,-22.523 c 47.836,-19.158 66.892,28.791 8.606,22.913 -11.052,0.97899 -36.709,-25.65 -8.606,-22.913 z m -25.871,-21.686 c 47.033,-21.052 67.988,26.099 9.5135,22.551 -11.004,1.4194 -37.704,-24.165 -9.5135,-22.551 z m -26.013,-20.555 c 46.194,-22.834 68.935,23.481 10.368,22.171 -10.942,1.839 -38.599,-22.707 -10.368,-22.171 z"
       sodipodi:nodetypes="cccccccccccccccccccccccccccccccccccccccccccccccccccccccccccccccccccccccccccccccccccccccccccccccccccccccccccccccccccccccccccccccccccccccccccccccccccccccccccccccccccccccccccccccccccccccccccccccccccccccccccccccccccccccccccccccccccccccccccccccccccccccccccccccccccccccccccccccccccccccccccccccccccccccccccccccccccccccccccccccccccccccccccccccccccccccccccccccccccccccccccccccccccccccccccccccccccccccccccccccccccccccccccccccccccccccccccccccccccccccccccc"
       inkscape:connector-curvature="0"
       transform="matrix(1.214,0,0,1.214,-214.86,34.245)" />
  </g>
  <metadata
     id="metadata3683">
    <rdf:RDF>
      <cc:Work>
        <dc:format>image/svg+xml</dc:format>
        <dc:type
           rdf:resource="http://purl.org/dc/dcmitype/StillImage" />
        <cc:license
           rdf:resource="http://creativecommons.org/licenses/publicdomain/" />
        <dc:publisher>
          <cc:Agent
             rdf:about="http://openclipart.org/">
            <dc:title>Openclipart</dc:title>
          </cc:Agent>
        </dc:publisher>
        <dc:title>Rope Ring 2</dc:title>
        <dc:date>2011-01-30T01:38:57</dc:date>
        <dc:description>A from scratch rope ring used to ornament badges and emblems.  Stroke width and fill color can be varied for different effects.  One Layer, 296 nodes.</dc:description>
        <dc:source>https://openclipart.org/detail/110383/rope-ring-2-by-joe-linux</dc:source>
        <dc:creator>
          <cc:Agent>
            <dc:title>Joe Linux</dc:title>
          </cc:Agent>
        </dc:creator>
        <dc:subject>
          <rdf:Bag>
            <rdf:li>Emblem</rdf:li>
            <rdf:li>Rope Ring</rdf:li>
          </rdf:Bag>
        </dc:subject>
      </cc:Work>
      <cc:License
         rdf:about="http://creativecommons.org/licenses/publicdomain/">
        <cc:permits
           rdf:resource="http://creativecommons.org/ns#Reproduction" />
        <cc:permits
           rdf:resource="http://creativecommons.org/ns#Distribution" />
        <cc:permits
           rdf:resource="http://creativecommons.org/ns#DerivativeWorks" />
      </cc:License>
    </rdf:RDF>
  </metadata>
</svg>
